<svg width="42" height="47" viewBox="0 0 42 47" fill="none" xmlns="http://www.w3.org/2000/svg">
<g filter="url(#filter0_d_66_929)">
<path d="M13.6671 8.00004C12.7804 7.99979 11.9096 8.23532 11.1439 8.6825C10.3783 9.12968 9.74533 9.77242 9.30994 10.5448C8.87455 11.3172 8.65239 12.1915 8.66623 13.0781C8.68007 13.9647 8.92942 14.8316 9.38872 15.59C8.24795 15.8105 7.21951 16.4212 6.47997 17.3173C5.74043 18.2134 5.33594 19.339 5.33594 20.5009C5.33594 21.6627 5.74043 22.7884 6.47997 23.6845C7.21951 24.5806 8.24795 25.1913 9.38872 25.4117M13.6671 8.00004C13.6671 6.89497 14.106 5.83516 14.8874 5.05376C15.6688 4.27236 16.7287 3.83337 17.8337 3.83337C18.9388 3.83337 19.9986 4.27236 20.78 5.05376C21.5614 5.83516 22.0004 6.89497 22.0004 8.00004V33C22.0004 34.1051 21.5614 35.1649 20.78 35.9463C19.9986 36.7277 18.9388 37.1667 17.8337 37.1667C16.7287 37.1667 15.6688 36.7277 14.8874 35.9463C14.106 35.1649 13.6671 34.1051 13.6671 33C12.7806 33.0001 11.9101 32.7645 11.1447 32.3174C10.3793 31.8703 9.74652 31.2278 9.31118 30.4557C8.87584 29.6835 8.6536 28.8095 8.66722 27.9232C8.68085 27.0369 8.92985 26.1701 9.38872 25.4117M13.6671 8.00004C13.6671 9.36337 14.3221 10.5734 15.3337 11.3334M9.38872 25.4117C9.98685 24.4215 10.9098 23.6693 12.0004 23.2834M34.0837 8.41671L30.3337 12.1667H27.0004M34.0837 32.5834L30.3337 28.8334H27.0004M34.0837 20.5H27.0004M32.8337 8.41671C32.8337 8.74823 32.9654 9.06617 33.1998 9.30059C33.4343 9.53501 33.7522 9.66671 34.0837 9.66671C34.4152 9.66671 34.7332 9.53501 34.9676 9.30059C35.202 9.06617 35.3337 8.74823 35.3337 8.41671C35.3337 8.08519 35.202 7.76724 34.9676 7.53282C34.7332 7.2984 34.4152 7.16671 34.0837 7.16671C33.7522 7.16671 33.4343 7.2984 33.1998 7.53282C32.9654 7.76724 32.8337 8.08519 32.8337 8.41671ZM32.8337 32.5834C32.8337 32.2519 32.9654 31.9339 33.1998 31.6995C33.4343 31.4651 33.7522 31.3334 34.0837 31.3334C34.4152 31.3334 34.7332 31.4651 34.9676 31.6995C35.202 31.9339 35.3337 32.2519 35.3337 32.5834C35.3337 32.9149 35.202 33.2328 34.9676 33.4673C34.7332 33.7017 34.4152 33.8334 34.0837 33.8334C33.7522 33.8334 33.4343 33.7017 33.1998 33.4673C32.9654 33.2328 32.8337 32.9149 32.8337 32.5834ZM32.8337 20.5C32.8337 20.8316 32.9654 21.1495 33.1998 21.3839C33.4343 21.6183 33.7522 21.75 34.0837 21.75C34.4152 21.75 34.7332 21.6183 34.9676 21.3839C35.202 21.1495 35.3337 20.8316 35.3337 20.5C35.3337 20.1685 35.202 19.8506 34.9676 19.6162C34.7332 19.3817 34.4152 19.25 34.0837 19.25C33.7522 19.25 33.4343 19.3817 33.1998 19.6162C32.9654 19.8506 32.8337 20.1685 32.8337 20.5Z" stroke="#F5F5F5" stroke-width="2" stroke-linecap="round" stroke-linejoin="round"/>
</g>
<defs>
<filter id="filter0_d_66_929" x="-2" y="0.5" width="48" height="48" filterUnits="userSpaceOnUse" color-interpolation-filters="sRGB">
<feFlood flood-opacity="0" result="BackgroundImageFix"/>
<feColorMatrix in="SourceAlpha" type="matrix" values="0 0 0 0 0 0 0 0 0 0 0 0 0 0 0 0 0 0 127 0" result="hardAlpha"/>
<feOffset dy="4"/>
<feGaussianBlur stdDeviation="2"/>
<feComposite in2="hardAlpha" operator="out"/>
<feColorMatrix type="matrix" values="0 0 0 0 0 0 0 0 0 0 0 0 0 0 0 0 0 0 0.25 0"/>
<feBlend mode="normal" in2="BackgroundImageFix" result="effect1_dropShadow_66_929"/>
<feBlend mode="normal" in="SourceGraphic" in2="effect1_dropShadow_66_929" result="shape"/>
</filter>
</defs>
</svg>
