<svg width="49" height="44" viewBox="0 0 49 44" fill="none" xmlns="http://www.w3.org/2000/svg">
<g filter="url(#filter0_d_66_922)">
<path d="M39.625 5.74998C39.1952 5.47194 38.7037 5.30372 38.1937 5.26013C37.6837 5.21654 37.1707 5.2989 36.7 5.49998L21.275 11.575C20.9102 11.7248 20.5194 11.8013 20.125 11.8H10.25C9.4212 11.8 8.62634 12.1292 8.04029 12.7153C7.45424 13.3013 7.125 14.0962 7.125 14.925V15.175H4V22.675H7.125V23C7.14458 23.8157 7.48245 24.5914 8.06639 25.1614C8.65033 25.7313 9.43403 26.0502 10.25 26.05L14 34C14.2539 34.5353 14.6537 34.9882 15.1534 35.3066C15.6531 35.625 16.2325 35.796 16.825 35.8H18.4C19.2245 35.7934 20.0129 35.4612 20.5936 34.8759C21.1742 34.2906 21.5 33.4995 21.5 32.675V26.35L36.7 32.425C37.0744 32.572 37.4728 32.6483 37.875 32.65C38.499 32.6385 39.1066 32.4476 39.625 32.1C40.0362 31.8223 40.3754 31.4508 40.6145 31.0161C40.8536 30.5813 40.9857 30.0959 41 29.6V8.32498C40.9977 7.81627 40.8713 7.31581 40.6316 6.86706C40.392 6.41832 40.0465 6.03486 39.625 5.74998ZM18.375 14.925V23H10.25V14.925H18.375ZM18.375 32.675H16.8L13.725 26.05H18.375V32.675ZM22.425 23.375C22.1281 23.2234 21.8186 23.0979 21.5 23V14.75C21.8155 14.6844 22.1249 14.5924 22.425 14.475L37.875 8.32498V29.525L22.425 23.375ZM41.075 15.8V22.05C41.9038 22.05 42.6987 21.7207 43.2847 21.1347C43.8708 20.5486 44.2 19.7538 44.2 18.925C44.2 18.0962 43.8708 17.3013 43.2847 16.7153C42.6987 16.1292 41.9038 15.8 41.075 15.8Z" fill="#F5F5F5"/>
</g>
<defs>
<filter id="filter0_d_66_922" x="0" y="0.5" width="48.2002" height="48" filterUnits="userSpaceOnUse" color-interpolation-filters="sRGB">
<feFlood flood-opacity="0" result="BackgroundImageFix"/>
<feColorMatrix in="SourceAlpha" type="matrix" values="0 0 0 0 0 0 0 0 0 0 0 0 0 0 0 0 0 0 127 0" result="hardAlpha"/>
<feOffset dy="4"/>
<feGaussianBlur stdDeviation="2"/>
<feComposite in2="hardAlpha" operator="out"/>
<feColorMatrix type="matrix" values="0 0 0 0 0 0 0 0 0 0 0 0 0 0 0 0 0 0 0.25 0"/>
<feBlend mode="normal" in2="BackgroundImageFix" result="effect1_dropShadow_66_922"/>
<feBlend mode="normal" in="SourceGraphic" in2="effect1_dropShadow_66_922" result="shape"/>
</filter>
</defs>
</svg>
