<svg width="36" height="36" viewBox="0 0 36 36" fill="none" xmlns="http://www.w3.org/2000/svg">
<path d="M11.625 20.775L15.225 24.375M11.625 20.775C11.625 20.775 13.7505 15.462 16.776 11.775M11.625 20.775C3.7965 18.8175 10.83 11.775 16.776 11.775M15.225 24.375C15.225 24.375 20.538 22.2495 24.225 19.224M15.225 24.375C17.1825 32.202 24.225 25.17 24.225 19.224M16.776 11.775C19.836 8.046 24.8805 6.375 29.625 6.375C29.625 11.1195 27.954 16.1625 24.225 19.224M21.675 14.1855L22.7355 13.125M8.2785 24.864C6.8505 26.0655 6.375 29.6325 6.375 29.6325C6.375 29.6325 9.933 29.1555 11.1315 27.7245C11.8065 26.9235 11.7975 25.6935 11.046 24.9495C10.6745 24.6003 10.1881 24.3988 9.67843 24.3831C9.16876 24.3673 8.67089 24.5384 8.2785 24.864Z" stroke="black" stroke-width="1.5" stroke-linecap="round" stroke-linejoin="round"/>
</svg>
