<svg width="1728" height="722" viewBox="0 0 1728 722" fill="none" xmlns="http://www.w3.org/2000/svg">
<path d="M25 0L25 722" stroke="#5E2AFF" stroke-opacity="0.34"/>
<path d="M49 0L49 722" stroke="#5E2AFF" stroke-opacity="0.34"/>
<path d="M73 0L73 722" stroke="#5E2AFF" stroke-opacity="0.34"/>
<path d="M97 0L97 722" stroke="#5E2AFF" stroke-opacity="0.34"/>
<path d="M121 0L121 722" stroke="#5E2AFF" stroke-opacity="0.34"/>
<path d="M145 0L145 722" stroke="#5E2AFF" stroke-opacity="0.34"/>
<path d="M169 0L169 722" stroke="#5E2AFF" stroke-opacity="0.34"/>
<path d="M193 0L193 722" stroke="#5E2AFF" stroke-opacity="0.34"/>
<path d="M217 0L217 722" stroke="#5E2AFF" stroke-opacity="0.34"/>
<path d="M241 0L241 722" stroke="#5E2AFF" stroke-opacity="0.34"/>
<path d="M265 0L265 722" stroke="#5E2AFF" stroke-opacity="0.34"/>
<path d="M289 0L289 722" stroke="#5E2AFF" stroke-opacity="0.34"/>
<path d="M313 0L313 722" stroke="#5E2AFF" stroke-opacity="0.34"/>
<path d="M337 0L337 722" stroke="#5E2AFF" stroke-opacity="0.34"/>
<path d="M361 0L361 722" stroke="#5E2AFF" stroke-opacity="0.34"/>
<path d="M385 0L385 722" stroke="#5E2AFF" stroke-opacity="0.34"/>
<path d="M409 0L409 722" stroke="#5E2AFF" stroke-opacity="0.34"/>
<path d="M433 0L433 722" stroke="#5E2AFF" stroke-opacity="0.34"/>
<path d="M457 0L457 722" stroke="#5E2AFF" stroke-opacity="0.34"/>
<path d="M481 0L481 722" stroke="#5E2AFF" stroke-opacity="0.34"/>
<path d="M505 0L505 722" stroke="#5E2AFF" stroke-opacity="0.34"/>
<path d="M529 0L529 722" stroke="#5E2AFF" stroke-opacity="0.34"/>
<path d="M553 0L553 722" stroke="#5E2AFF" stroke-opacity="0.34"/>
<path d="M577 0L577 722" stroke="#5E2AFF" stroke-opacity="0.34"/>
<path d="M601 0L601 722" stroke="#5E2AFF" stroke-opacity="0.34"/>
<path d="M625 0L625 722" stroke="#5E2AFF" stroke-opacity="0.34"/>
<path d="M649 0L649 722" stroke="#5E2AFF" stroke-opacity="0.34"/>
<path d="M673 0L673 722" stroke="#5E2AFF" stroke-opacity="0.34"/>
<path d="M697 0L697 722" stroke="#5E2AFF" stroke-opacity="0.34"/>
<path d="M721 0L721 722" stroke="#5E2AFF" stroke-opacity="0.34"/>
<path d="M745 0L745 722" stroke="#5E2AFF" stroke-opacity="0.34"/>
<path d="M769 0L769 722" stroke="#5E2AFF" stroke-opacity="0.34"/>
<path d="M793 0L793 722" stroke="#5E2AFF" stroke-opacity="0.34"/>
<path d="M817 0L817 722" stroke="#5E2AFF" stroke-opacity="0.34"/>
<path d="M841 0L841 722" stroke="#5E2AFF" stroke-opacity="0.34"/>
<path d="M865 0L865 722" stroke="#5E2AFF" stroke-opacity="0.34"/>
<path d="M889 0L889 722" stroke="#5E2AFF" stroke-opacity="0.34"/>
<path d="M913 0L913 722" stroke="#5E2AFF" stroke-opacity="0.34"/>
<path d="M937 0L937 722" stroke="#5E2AFF" stroke-opacity="0.34"/>
<path d="M961 0L961 722" stroke="#5E2AFF" stroke-opacity="0.34"/>
<path d="M985 0L985 722" stroke="#5E2AFF" stroke-opacity="0.34"/>
<path d="M1009 0L1009 722" stroke="#5E2AFF" stroke-opacity="0.34"/>
<path d="M1033 0L1033 722" stroke="#5E2AFF" stroke-opacity="0.34"/>
<path d="M1057 0L1057 722" stroke="#5E2AFF" stroke-opacity="0.34"/>
<path d="M1081 0L1081 722" stroke="#5E2AFF" stroke-opacity="0.34"/>
<path d="M1105 0L1105 722" stroke="#5E2AFF" stroke-opacity="0.34"/>
<path d="M1129 0L1129 722" stroke="#5E2AFF" stroke-opacity="0.34"/>
<path d="M1153 0L1153 722" stroke="#5E2AFF" stroke-opacity="0.34"/>
<path d="M1177 0L1177 722" stroke="#5E2AFF" stroke-opacity="0.34"/>
<path d="M1201 0L1201 722" stroke="#5E2AFF" stroke-opacity="0.34"/>
<path d="M1225 0L1225 722" stroke="#5E2AFF" stroke-opacity="0.34"/>
<path d="M1249 0L1249 722" stroke="#5E2AFF" stroke-opacity="0.34"/>
<path d="M1273 0L1273 722" stroke="#5E2AFF" stroke-opacity="0.34"/>
<path d="M1297 0L1297 722" stroke="#5E2AFF" stroke-opacity="0.34"/>
<path d="M1321 0L1321 722" stroke="#5E2AFF" stroke-opacity="0.34"/>
<path d="M1345 0L1345 722" stroke="#5E2AFF" stroke-opacity="0.34"/>
<path d="M1369 0L1369 722" stroke="#5E2AFF" stroke-opacity="0.34"/>
<path d="M1393 0L1393 722" stroke="#5E2AFF" stroke-opacity="0.34"/>
<path d="M1417 0L1417 722" stroke="#5E2AFF" stroke-opacity="0.34"/>
<path d="M1441 0L1441 722" stroke="#5E2AFF" stroke-opacity="0.34"/>
<path d="M1465 0L1465 722" stroke="#5E2AFF" stroke-opacity="0.34"/>
<path d="M1489 0L1489 722" stroke="#5E2AFF" stroke-opacity="0.34"/>
<path d="M1513 0L1513 722" stroke="#5E2AFF" stroke-opacity="0.34"/>
<path d="M1537 0L1537 722" stroke="#5E2AFF" stroke-opacity="0.34"/>
<path d="M1561 0L1561 722" stroke="#5E2AFF" stroke-opacity="0.34"/>
<path d="M1585 0L1585 722" stroke="#5E2AFF" stroke-opacity="0.34"/>
<path d="M1609 0L1609 722" stroke="#5E2AFF" stroke-opacity="0.34"/>
<path d="M1633 0L1633 722" stroke="#5E2AFF" stroke-opacity="0.34"/>
<path d="M1657 0L1657 722" stroke="#5E2AFF" stroke-opacity="0.34"/>
<path d="M1681 0L1681 722" stroke="#5E2AFF" stroke-opacity="0.34"/>
<path d="M1705 0L1705 722" stroke="#5E2AFF" stroke-opacity="0.34"/>
<path d="M0 25L1728 24.9997" stroke="#5E2AFF" stroke-opacity="0.34"/>
<path d="M0 51.0003L1728 51" stroke="#5E2AFF" stroke-opacity="0.34"/>
<path d="M0 77.0006L1728 77.0003" stroke="#5E2AFF" stroke-opacity="0.34"/>
<path d="M0 103.001L1728 103.001" stroke="#5E2AFF" stroke-opacity="0.34"/>
<path d="M0 129.001L1728 129.001" stroke="#5E2AFF" stroke-opacity="0.34"/>
<path d="M0 155.002L1728 155.001" stroke="#5E2AFF" stroke-opacity="0.34"/>
<path d="M0 181.002L1728 181.002" stroke="#5E2AFF" stroke-opacity="0.34"/>
<path d="M0 207.002L1728 207.002" stroke="#5E2AFF" stroke-opacity="0.34"/>
<path d="M0 233.002L1728 233.002" stroke="#5E2AFF" stroke-opacity="0.34"/>
<path d="M0 259.003L1728 259.002" stroke="#5E2AFF" stroke-opacity="0.34"/>
<path d="M0 285.003L1728 285.003" stroke="#5E2AFF" stroke-opacity="0.34"/>
<path d="M0 311.003L1728 311.003" stroke="#5E2AFF" stroke-opacity="0.34"/>
<path d="M0 337.004L1728 337.003" stroke="#5E2AFF" stroke-opacity="0.34"/>
<path d="M0 363.004L1728 363.004" stroke="#5E2AFF" stroke-opacity="0.34"/>
<path d="M0 389.004L1728 389.004" stroke="#5E2AFF" stroke-opacity="0.34"/>
<path d="M0 415.005L1728 415.004" stroke="#5E2AFF" stroke-opacity="0.34"/>
<path d="M0 441.005L1728 441.005" stroke="#5E2AFF" stroke-opacity="0.34"/>
<path d="M0 467.005L1728 467.005" stroke="#5E2AFF" stroke-opacity="0.34"/>
<path d="M0 493.005L1728 493.005" stroke="#5E2AFF" stroke-opacity="0.34"/>
<path d="M0 519.006L1728 519.005" stroke="#5E2AFF" stroke-opacity="0.34"/>
<path d="M0 545.006L1728 545.006" stroke="#5E2AFF" stroke-opacity="0.34"/>
<path d="M0 571.006L1728 571.006" stroke="#5E2AFF" stroke-opacity="0.34"/>
<path d="M0 597.007L1728 597.006" stroke="#5E2AFF" stroke-opacity="0.34"/>
<path d="M0 623.007L1728 623.007" stroke="#5E2AFF" stroke-opacity="0.34"/>
<path d="M0 649.007L1728 649.007" stroke="#5E2AFF" stroke-opacity="0.34"/>
<path d="M0 675.008L1728 675.007" stroke="#5E2AFF" stroke-opacity="0.34"/>
<path d="M0 701.008L1728 701.008" stroke="#5E2AFF" stroke-opacity="0.34"/>
</svg>
