<svg width="1728" height="385" viewBox="0 0 1728 385" fill="none" xmlns="http://www.w3.org/2000/svg">
<path d="M25 0L25 385" stroke="#5E2AFF" stroke-opacity="0.16"/>
<path d="M49 0L49 385" stroke="#5E2AFF" stroke-opacity="0.16"/>
<path d="M73 0L73 385" stroke="#5E2AFF" stroke-opacity="0.16"/>
<path d="M97 0L97 385" stroke="#5E2AFF" stroke-opacity="0.16"/>
<path d="M121 0L121 385" stroke="#5E2AFF" stroke-opacity="0.16"/>
<path d="M145 0L145 385" stroke="#5E2AFF" stroke-opacity="0.16"/>
<path d="M169 0L169 385" stroke="#5E2AFF" stroke-opacity="0.16"/>
<path d="M193 0L193 385" stroke="#5E2AFF" stroke-opacity="0.16"/>
<path d="M217 0L217 385" stroke="#5E2AFF" stroke-opacity="0.16"/>
<path d="M241 0L241 385" stroke="#5E2AFF" stroke-opacity="0.16"/>
<path d="M265 0L265 385" stroke="#5E2AFF" stroke-opacity="0.16"/>
<path d="M289 0L289 385" stroke="#5E2AFF" stroke-opacity="0.16"/>
<path d="M313 0L313 385" stroke="#5E2AFF" stroke-opacity="0.16"/>
<path d="M337 0L337 385" stroke="#5E2AFF" stroke-opacity="0.16"/>
<path d="M361 0L361 385" stroke="#5E2AFF" stroke-opacity="0.16"/>
<path d="M385 0L385 385" stroke="#5E2AFF" stroke-opacity="0.16"/>
<path d="M409 0L409 385" stroke="#5E2AFF" stroke-opacity="0.16"/>
<path d="M433 0L433 385" stroke="#5E2AFF" stroke-opacity="0.16"/>
<path d="M457 0L457 385" stroke="#5E2AFF" stroke-opacity="0.16"/>
<path d="M481 0L481 385" stroke="#5E2AFF" stroke-opacity="0.16"/>
<path d="M505 0L505 385" stroke="#5E2AFF" stroke-opacity="0.16"/>
<path d="M529 0L529 385" stroke="#5E2AFF" stroke-opacity="0.16"/>
<path d="M553 0L553 385" stroke="#5E2AFF" stroke-opacity="0.16"/>
<path d="M577 0L577 385" stroke="#5E2AFF" stroke-opacity="0.16"/>
<path d="M601 0L601 385" stroke="#5E2AFF" stroke-opacity="0.16"/>
<path d="M625 0L625 385" stroke="#5E2AFF" stroke-opacity="0.16"/>
<path d="M649 0L649 385" stroke="#5E2AFF" stroke-opacity="0.16"/>
<path d="M673 0L673 385" stroke="#5E2AFF" stroke-opacity="0.16"/>
<path d="M697 0L697 385" stroke="#5E2AFF" stroke-opacity="0.16"/>
<path d="M721 0L721 385" stroke="#5E2AFF" stroke-opacity="0.16"/>
<path d="M745 0L745 385" stroke="#5E2AFF" stroke-opacity="0.16"/>
<path d="M769 0L769 385" stroke="#5E2AFF" stroke-opacity="0.16"/>
<path d="M793 0L793 385" stroke="#5E2AFF" stroke-opacity="0.16"/>
<path d="M817 0L817 385" stroke="#5E2AFF" stroke-opacity="0.16"/>
<path d="M841 0L841 385" stroke="#5E2AFF" stroke-opacity="0.16"/>
<path d="M865 0L865 385" stroke="#5E2AFF" stroke-opacity="0.16"/>
<path d="M889 0L889 385" stroke="#5E2AFF" stroke-opacity="0.16"/>
<path d="M913 0L913 385" stroke="#5E2AFF" stroke-opacity="0.16"/>
<path d="M937 0L937 385" stroke="#5E2AFF" stroke-opacity="0.16"/>
<path d="M961 0L961 385" stroke="#5E2AFF" stroke-opacity="0.16"/>
<path d="M985 0L985 385" stroke="#5E2AFF" stroke-opacity="0.16"/>
<path d="M1009 0L1009 385" stroke="#5E2AFF" stroke-opacity="0.16"/>
<path d="M1033 0L1033 385" stroke="#5E2AFF" stroke-opacity="0.16"/>
<path d="M1057 0L1057 385" stroke="#5E2AFF" stroke-opacity="0.16"/>
<path d="M1081 0L1081 385" stroke="#5E2AFF" stroke-opacity="0.16"/>
<path d="M1105 0L1105 385" stroke="#5E2AFF" stroke-opacity="0.16"/>
<path d="M1129 0L1129 385" stroke="#5E2AFF" stroke-opacity="0.16"/>
<path d="M1153 0L1153 385" stroke="#5E2AFF" stroke-opacity="0.16"/>
<path d="M1177 0L1177 385" stroke="#5E2AFF" stroke-opacity="0.16"/>
<path d="M1201 0L1201 385" stroke="#5E2AFF" stroke-opacity="0.16"/>
<path d="M1225 0L1225 385" stroke="#5E2AFF" stroke-opacity="0.16"/>
<path d="M1249 0L1249 385" stroke="#5E2AFF" stroke-opacity="0.16"/>
<path d="M1273 0L1273 385" stroke="#5E2AFF" stroke-opacity="0.16"/>
<path d="M1297 0L1297 385" stroke="#5E2AFF" stroke-opacity="0.16"/>
<path d="M1321 0L1321 385" stroke="#5E2AFF" stroke-opacity="0.16"/>
<path d="M1345 0L1345 385" stroke="#5E2AFF" stroke-opacity="0.16"/>
<path d="M1369 0L1369 385" stroke="#5E2AFF" stroke-opacity="0.16"/>
<path d="M1393 0L1393 385" stroke="#5E2AFF" stroke-opacity="0.16"/>
<path d="M1417 0L1417 385" stroke="#5E2AFF" stroke-opacity="0.16"/>
<path d="M1441 0L1441 385" stroke="#5E2AFF" stroke-opacity="0.16"/>
<path d="M1465 0L1465 385" stroke="#5E2AFF" stroke-opacity="0.16"/>
<path d="M1489 0L1489 385" stroke="#5E2AFF" stroke-opacity="0.16"/>
<path d="M1513 0L1513 385" stroke="#5E2AFF" stroke-opacity="0.16"/>
<path d="M1537 0L1537 385" stroke="#5E2AFF" stroke-opacity="0.16"/>
<path d="M1561 0L1561 385" stroke="#5E2AFF" stroke-opacity="0.16"/>
<path d="M1585 0L1585 385" stroke="#5E2AFF" stroke-opacity="0.16"/>
<path d="M1609 0L1609 385" stroke="#5E2AFF" stroke-opacity="0.16"/>
<path d="M1633 0L1633 385" stroke="#5E2AFF" stroke-opacity="0.16"/>
<path d="M1657 0L1657 385" stroke="#5E2AFF" stroke-opacity="0.16"/>
<path d="M1681 0L1681 385" stroke="#5E2AFF" stroke-opacity="0.16"/>
<path d="M1705 0L1705 385" stroke="#5E2AFF" stroke-opacity="0.16"/>
<path d="M0 25L1728 24.9997" stroke="#5E2AFF" stroke-opacity="0.16"/>
<path d="M0 51.0003L1728 51" stroke="#5E2AFF" stroke-opacity="0.16"/>
<path d="M0 77.0006L1728 77.0003" stroke="#5E2AFF" stroke-opacity="0.16"/>
<path d="M0 103.001L1728 103.001" stroke="#5E2AFF" stroke-opacity="0.16"/>
<path d="M0 129.001L1728 129.001" stroke="#5E2AFF" stroke-opacity="0.16"/>
<path d="M0 155.002L1728 155.001" stroke="#5E2AFF" stroke-opacity="0.16"/>
<path d="M0 181.002L1728 181.002" stroke="#5E2AFF" stroke-opacity="0.16"/>
<path d="M0 207.002L1728 207.002" stroke="#5E2AFF" stroke-opacity="0.16"/>
<path d="M0 233.002L1728 233.002" stroke="#5E2AFF" stroke-opacity="0.16"/>
<path d="M0 259.003L1728 259.002" stroke="#5E2AFF" stroke-opacity="0.16"/>
<path d="M0 285.003L1728 285.003" stroke="#5E2AFF" stroke-opacity="0.16"/>
<path d="M0 311.003L1728 311.003" stroke="#5E2AFF" stroke-opacity="0.16"/>
<path d="M0 337.004L1728 337.003" stroke="#5E2AFF" stroke-opacity="0.16"/>
<path d="M0 363.004L1728 363.004" stroke="#5E2AFF" stroke-opacity="0.16"/>
</svg>
