<svg width="148" height="105" viewBox="0 0 148 105" fill="none" xmlns="http://www.w3.org/2000/svg">
<path d="M96.4046 0.0159518H97.4574V0.0538373C125.373 1.39977 147.588 24.1653 147.588 52.0547C147.588 79.9437 125.373 102.704 97.4574 104.05V104.149H52.246V104.135C23.6124 103.569 0.576737 80.4826 0.576126 52.0786C0.576129 23.6742 23.612 0.583993 52.246 0.0179458V0.0159518H95.918V0C96.0804 0.00321013 96.2425 0.0112959 96.4046 0.0159518ZM52.246 18.9487V18.9587C34.4175 19.5262 20.139 34.1368 20.139 52.0786C20.1396 70.0199 34.418 84.629 52.246 85.1966V85.2165H95.918V85.1647C113.746 84.5972 128.025 69.9934 128.025 52.0547C128.025 34.1933 113.87 19.6347 96.1493 18.9487H52.246Z" fill="url(#paint0_linear_193_522)"/>
<defs>
<linearGradient id="paint0_linear_193_522" x1="0.576126" y1="51.0246" x2="139.166" y2="50.7405" gradientUnits="userSpaceOnUse">
<stop stop-color="#5E2AFF"/>
<stop offset="0.571435" stop-color="#190F82"/>
<stop offset="1" stop-color="#269206"/>
</linearGradient>
</defs>
</svg>
