<svg width="86" height="58" viewBox="0 0 86 58" fill="none" xmlns="http://www.w3.org/2000/svg">
<g filter="url(#filter0_d_58_539)">
<path d="M72.157 21.2711C70.8782 21.2711 69.7028 20.9608 68.6309 20.3402C67.5777 19.7196 66.7314 18.8639 66.092 17.7732C65.4714 16.6636 65.1611 15.3942 65.1611 13.965C65.1611 12.4981 65.4808 11.2193 66.1202 10.1285C66.7597 9.01899 67.6247 8.15391 68.7155 7.53332C69.8062 6.91272 71.0286 6.60242 72.3827 6.60242C73.8872 6.60242 75.0813 6.93152 75.9652 7.58973C76.8491 8.24794 77.4791 9.13183 77.8552 10.2414C78.2314 11.3509 78.4194 12.5921 78.4194 13.965C78.4194 14.736 78.3066 15.5541 78.0809 16.4192C77.8552 17.2654 77.4979 18.0553 77.009 18.7887C76.5388 19.5222 75.8994 20.1239 75.0907 20.5941C74.3009 21.0454 73.323 21.2711 72.157 21.2711ZM73.1161 18.6759C74.1692 18.6759 75.0625 18.4784 75.796 18.0835C76.5482 17.6698 77.1124 17.1056 77.4885 16.391C77.8834 15.6763 78.0809 14.8677 78.0809 13.965C78.0809 12.9683 77.8834 12.122 77.4885 11.4262C77.0936 10.7115 76.5294 10.1662 75.796 9.79004C75.0625 9.39511 74.1692 9.19765 73.1161 9.19765C71.6116 9.19765 70.4456 9.63959 69.6182 10.5235C68.7907 11.4074 68.377 12.5545 68.377 13.965C68.377 14.8865 68.5744 15.7045 68.9694 16.4192C69.3831 17.1338 69.9473 17.6886 70.6619 18.0835C71.3765 18.4784 72.1946 18.6759 73.1161 18.6759ZM78.0809 6.91272H81.2403V20.9608H78.3066C78.3066 20.9608 78.2878 20.7822 78.2502 20.4248C78.2126 20.0675 78.1749 19.635 78.1373 19.1272C78.0997 18.6007 78.0809 18.1023 78.0809 17.6321V6.91272Z" fill="#F5F5F5"/>
<path d="M57.0206 18.7322H55.9204L60.7724 6.9126H64.1857L57.9797 20.9607H54.9895L48.8682 6.9126H52.3097L57.0206 18.7322Z" fill="#F5F5F5"/>
<path d="M39.7069 21.2711C38.146 21.2711 36.7449 20.989 35.5037 20.4248C34.2625 19.8607 33.2846 19.0332 32.57 17.9424C31.8554 16.8517 31.498 15.5259 31.498 13.965C31.498 12.4229 31.8554 11.1065 32.57 10.0157C33.2846 8.90615 34.2625 8.05988 35.5037 7.4769C36.7449 6.89391 38.146 6.60242 39.7069 6.60242C41.2678 6.60242 42.6595 6.89391 43.8818 7.4769C45.1042 8.05988 46.0634 8.90615 46.7592 10.0157C47.4738 11.1065 47.8311 12.4229 47.8311 13.965C47.8311 15.5259 47.4738 16.8517 46.7592 17.9424C46.0634 19.0332 45.1042 19.8607 43.8818 20.4248C42.6595 20.989 41.2678 21.2711 39.7069 21.2711ZM39.7069 18.7041C40.6096 18.7041 41.4371 18.5254 42.1893 18.1681C42.9415 17.8108 43.5339 17.2748 43.9665 16.5602C44.4178 15.8456 44.6435 14.9805 44.6435 13.965C44.6435 12.9494 44.4178 12.0844 43.9665 11.3697C43.5339 10.6551 42.9415 10.1097 42.1893 9.73362C41.4559 9.33869 40.6284 9.14123 39.7069 9.14123C38.7854 9.14123 37.9485 9.32929 37.1963 9.70541C36.444 10.0815 35.8328 10.6269 35.3627 11.3415C34.9113 12.0562 34.6857 12.9306 34.6857 13.965C34.6857 14.9805 34.9113 15.8456 35.3627 16.5602C35.814 17.2748 36.4158 17.8108 37.1681 18.1681C37.9391 18.5254 38.7854 18.7041 39.7069 18.7041Z" fill="#F5F5F5"/>
<path d="M14.1318 6.91272H17.263V20.9608H14.1318V6.91272ZM23.187 6.60242C23.9956 6.60242 24.7385 6.71525 25.4155 6.94092C26.1113 7.1666 26.7037 7.51451 27.1927 7.98466C27.7004 8.436 28.0859 9.00018 28.3492 9.6772C28.6313 10.3542 28.7724 11.1535 28.7724 12.075V20.9608H25.6412V12.6956C25.6412 11.5484 25.3591 10.7021 24.7949 10.1568C24.2495 9.59257 23.3844 9.31048 22.1996 9.31048C21.297 9.31048 20.4695 9.50795 19.7172 9.90287C18.9838 10.279 18.382 10.7774 17.9119 11.398C17.4417 11.9997 17.169 12.6674 17.0938 13.4008L17.0656 11.8775C17.1596 11.1817 17.3665 10.5235 17.6862 9.90287C18.0059 9.26347 18.429 8.69929 18.9556 8.21033C19.4822 7.70257 20.1028 7.30764 20.8174 7.02555C21.532 6.74346 22.3219 6.60242 23.187 6.60242Z" fill="#F5F5F5"/>
<path d="M6.44238 2.68134H9.65822V20.9608H6.44238V2.68134Z" fill="#F5F5F5"/>
</g>
<g filter="url(#filter1_d_58_539)">
<path d="M14.2399 42.1622C12.679 42.1622 11.2685 41.9554 10.0085 41.5416C8.74853 41.1279 7.66719 40.5261 6.76449 39.7362C5.88061 38.9276 5.19419 37.9403 4.70523 36.7743C4.23508 35.6083 4 34.2919 4 32.825C4 31.3394 4.25388 30.0041 4.76165 28.8193C5.26941 27.6346 5.99344 26.6284 6.93375 25.801C7.87405 24.9547 8.99301 24.3153 10.2906 23.8828C11.5883 23.4314 13.0175 23.2057 14.5784 23.2057C16.4026 23.2057 17.9823 23.4878 19.3175 24.052C20.6528 24.6162 21.7153 25.4061 22.5052 26.4216C23.295 27.4183 23.7464 28.6031 23.8592 29.9759H20.8973C20.6528 29.1673 20.2484 28.4714 19.6843 27.8885C19.1389 27.3055 18.4337 26.8541 17.5686 26.5344C16.7223 26.1959 15.7256 26.0267 14.5784 26.0267C13.0739 26.0267 11.7669 26.3181 10.6574 26.9011C9.5666 27.4653 8.72973 28.2646 8.14674 29.2989C7.56375 30.3144 7.27226 31.4898 7.27226 32.825C7.27226 34.1603 7.52614 35.3168 8.0339 36.2947C8.56047 37.2539 9.35033 38.0061 10.4035 38.5515C11.4566 39.078 12.7636 39.3413 14.3245 39.3413C14.4484 39.3413 14.5706 39.3394 14.6913 39.3356C15.7432 39.3027 16.6741 39.1259 17.484 38.8054C18.4055 38.4292 19.1671 37.9121 19.7689 37.2539C20.3707 36.5956 20.7938 35.834 21.0383 34.9689L22.477 34.6304C22.2137 37.0564 21.3486 38.9182 19.8817 40.2158C18.529 41.428 16.7989 42.074 14.6913 42.1538C14.5427 42.1594 14.3922 42.1622 14.2399 42.1622ZM21.7153 41.8237C21.7153 41.2219 21.7435 40.5449 21.8 39.7927C21.8564 39.0216 21.9222 38.2412 21.9974 37.4513C22.0914 36.6427 22.1761 35.9186 22.2513 35.2792H14.6913V32.9661H24.5644V41.8237H21.7153Z" fill="#F5F5F5"/>
<path d="M26.9082 27.7757H30.0394V41.8238H26.9082V27.7757ZM35.1171 30.4555C34.1015 30.4555 33.227 30.6718 32.4936 31.1044C31.779 31.5369 31.2054 32.0635 30.7729 32.6841C30.3403 33.3047 30.0394 33.9065 29.8702 34.4894L29.842 32.9097C29.8608 32.7029 29.9266 32.3926 30.0394 31.9788C30.1523 31.5463 30.3215 31.0761 30.5472 30.5684C30.7917 30.0606 31.1114 29.5717 31.5063 29.1015C31.92 28.6126 32.4184 28.2176 33.0014 27.9167C33.6032 27.6158 34.3084 27.4654 35.1171 27.4654V30.4555Z" fill="#F5F5F5"/>
<path d="M75.3987 39.4542L74.4678 39.426L78.5581 27.7757H81.9996L76.527 41.8238H73.5651L69.1927 30.117H70.18L65.6947 41.8238H62.7328L57.373 27.7757H60.8146L64.792 39.4542H63.8611L67.8668 27.7757H71.534L75.3987 39.4542Z" fill="#F5F5F5"/>
<path d="M49.8222 27.1316H49.9737V27.1371C53.9911 27.3308 57.1881 30.607 57.1881 34.6206C57.188 38.6342 53.991 41.9096 49.9737 42.1033V42.1177H43.4672V42.1157C39.3465 42.0342 36.0313 38.7118 36.0312 34.6241C36.0313 30.5363 39.3464 27.2134 43.4672 27.1319V27.1316H49.7521V27.1293C49.7755 27.1298 49.7988 27.131 49.8222 27.1316ZM43.4672 29.8563V29.8577C40.9015 29.9394 38.8466 32.042 38.8466 34.6241C38.8467 37.206 40.9015 39.3085 43.4672 39.3902V39.393H49.7521V39.3856C52.3178 39.3039 54.3727 37.2022 54.3727 34.6206C54.3727 32.0502 52.3356 29.955 49.7854 29.8563H43.4672Z" fill="url(#paint0_linear_58_539)"/>
</g>
<g filter="url(#filter2_d_58_539)">
<path d="M37.1352 50.4653V51.2269H36.1973V50.4653H37.1352Z" fill="#F5F5F5"/>
<path d="M34.7919 50.0704H35.5465C35.5089 50.3101 35.4149 50.5241 35.2644 50.7121C35.1187 50.8955 34.9189 51.0412 34.665 51.1494C34.4111 51.2528 34.1078 51.3045 33.7552 51.3045C33.3556 51.3045 32.9983 51.2316 32.6833 51.0859C32.3683 50.9354 32.1214 50.7239 31.9428 50.4512C31.7641 50.1785 31.6748 49.8541 31.6748 49.478C31.6748 49.1065 31.7618 48.7821 31.9357 48.5048C32.1097 48.2274 32.3495 48.0134 32.6551 47.863C32.9654 47.7126 33.3227 47.6373 33.727 47.6373C34.1455 47.6373 34.4934 47.7126 34.7708 47.863C35.0528 48.0087 35.2621 48.2297 35.3984 48.5259C35.5348 48.8174 35.5912 49.1865 35.5677 49.6331H32.4717C32.4952 49.8306 32.5587 50.0092 32.6621 50.1691C32.7703 50.3242 32.916 50.4465 33.0994 50.5358C33.2827 50.6204 33.4966 50.6627 33.7411 50.6627C34.0138 50.6627 34.2418 50.6087 34.4252 50.5005C34.6133 50.3924 34.7355 50.249 34.7919 50.0704ZM33.7059 48.272C33.3862 48.272 33.1229 48.352 32.916 48.5118C32.7091 48.667 32.5751 48.8668 32.514 49.1113H34.7778C34.759 48.848 34.6532 48.6435 34.4605 48.4977C34.2677 48.3473 34.0162 48.272 33.7059 48.272Z" fill="#F5F5F5"/>
<path d="M28.8154 47.7147H31.2978V48.3565H28.8154V47.7147ZM29.6617 46.7697H30.4516V51.2267H29.6617V46.7697Z" fill="#F5F5F5"/>
<path d="M25.9316 51.3045C25.6119 51.3045 25.318 51.2269 25.05 51.0718C24.7868 50.9166 24.5752 50.7027 24.4153 50.43C24.2602 50.1526 24.1826 49.8353 24.1826 49.478C24.1826 49.1113 24.2625 48.7915 24.4224 48.5189C24.5822 48.2415 24.7985 48.0252 25.0712 47.8701C25.3439 47.7149 25.6495 47.6373 25.988 47.6373C26.3641 47.6373 26.6627 47.7196 26.8836 47.8842C27.1046 48.0487 27.2621 48.2697 27.3561 48.5471C27.4502 48.8245 27.4972 49.1348 27.4972 49.478C27.4972 49.6707 27.469 49.8752 27.4126 50.0915C27.3561 50.3031 27.2668 50.5005 27.1446 50.6839C27.027 50.8673 26.8672 51.0177 26.665 51.1352C26.4676 51.2481 26.2231 51.3045 25.9316 51.3045ZM26.1714 50.6557C26.4346 50.6557 26.658 50.6063 26.8413 50.5076C27.0294 50.4042 27.1704 50.2631 27.2645 50.0845C27.3632 49.9058 27.4126 49.7036 27.4126 49.478C27.4126 49.2288 27.3632 49.0172 27.2645 48.8433C27.1657 48.6646 27.0247 48.5283 26.8413 48.4342C26.658 48.3355 26.4346 48.2861 26.1714 48.2861C25.7952 48.2861 25.5037 48.3966 25.2969 48.6176C25.09 48.8386 24.9866 49.1254 24.9866 49.478C24.9866 49.7083 25.0359 49.9129 25.1347 50.0915C25.2381 50.2702 25.3792 50.4089 25.5578 50.5076C25.7365 50.6063 25.941 50.6557 26.1714 50.6557ZM27.4126 47.7149H28.2024V51.2269H27.469C27.469 51.2269 27.4643 51.1823 27.4549 51.0929C27.4455 51.0036 27.4361 50.8955 27.4267 50.7685C27.4173 50.6369 27.4126 50.5123 27.4126 50.3948V47.7149Z" fill="#F5F5F5"/>
<path d="M22.1475 50.6697H21.8724L23.0854 47.7148H23.9388L22.3873 51.2269H21.6397L20.1094 47.7148H20.9698L22.1475 50.6697Z" fill="#F5F5F5"/>
<path d="M17.8188 51.3045C17.4286 51.3045 17.0783 51.234 16.768 51.0929C16.4577 50.9519 16.2132 50.745 16.0346 50.4723C15.8559 50.1996 15.7666 49.8682 15.7666 49.478C15.7666 49.0924 15.8559 48.7633 16.0346 48.4907C16.2132 48.2133 16.4577 48.0017 16.768 47.8559C17.0783 47.7102 17.4286 47.6373 17.8188 47.6373C18.209 47.6373 18.557 47.7102 18.8626 47.8559C19.1682 48.0017 19.4079 48.2133 19.5819 48.4907C19.7605 48.7633 19.8499 49.0924 19.8499 49.478C19.8499 49.8682 19.7605 50.1996 19.5819 50.4723C19.4079 50.745 19.1682 50.9519 18.8626 51.0929C18.557 51.234 18.209 51.3045 17.8188 51.3045ZM17.8188 50.6627C18.0445 50.6627 18.2514 50.6181 18.4394 50.5288C18.6275 50.4394 18.7756 50.3054 18.8837 50.1268C18.9965 49.9481 19.053 49.7319 19.053 49.478C19.053 49.2241 18.9965 49.0078 18.8837 48.8292C18.7756 48.6505 18.6275 48.5142 18.4394 48.4201C18.2561 48.3214 18.0492 48.272 17.8188 48.272C17.5884 48.272 17.3792 48.319 17.1912 48.4131C17.0031 48.5071 16.8503 48.6435 16.7328 48.8221C16.6199 49.0008 16.5635 49.2194 16.5635 49.478C16.5635 49.7319 16.6199 49.9481 16.7328 50.1268C16.8456 50.3054 16.996 50.4394 17.1841 50.5288C17.3769 50.6181 17.5884 50.6627 17.8188 50.6627Z" fill="#F5F5F5"/>
<path d="M11.4248 47.7149H12.2076V51.2269H11.4248V47.7149ZM13.6886 47.6373C13.8908 47.6373 14.0765 47.6655 14.2457 47.722C14.4197 47.7784 14.5678 47.8654 14.69 47.9829C14.817 48.0957 14.9133 48.2368 14.9792 48.406C15.0497 48.5753 15.0849 48.7751 15.0849 49.0055V51.2269H14.3021V49.1606C14.3021 48.8738 14.2316 48.6623 14.0906 48.5259C13.9542 48.3849 13.738 48.3143 13.4418 48.3143C13.2161 48.3143 13.0092 48.3637 12.8212 48.4624C12.6378 48.5565 12.4873 48.6811 12.3698 48.8362C12.2523 48.9867 12.1841 49.1536 12.1653 49.3369L12.1582 48.9561C12.1817 48.7821 12.2335 48.6176 12.3134 48.4624C12.3933 48.3026 12.4991 48.1615 12.6307 48.0393C12.7624 47.9124 12.9175 47.8136 13.0962 47.7431C13.2749 47.6726 13.4723 47.6373 13.6886 47.6373Z" fill="#F5F5F5"/>
<path d="M6.90039 47.7149H7.68319V51.2269H6.90039V47.7149ZM9.16417 47.6373C9.36634 47.6373 9.55205 47.6655 9.7213 47.722C9.89526 47.7784 10.0434 47.8654 10.1656 47.9829C10.2925 48.0957 10.3889 48.2368 10.4547 48.406C10.5253 48.5753 10.5605 48.7751 10.5605 49.0055V51.2269H9.77772V49.1606C9.77772 48.8738 9.7072 48.6623 9.56615 48.5259C9.42981 48.3849 9.21354 48.3143 8.91734 48.3143C8.69167 48.3143 8.4848 48.3637 8.29674 48.4624C8.11338 48.5565 7.96293 48.6811 7.8454 48.8362C7.72786 48.9867 7.65969 49.1536 7.64088 49.3369L7.63383 48.9561C7.65734 48.7821 7.70905 48.6176 7.78898 48.4624C7.8689 48.3026 7.97469 48.1615 8.10633 48.0393C8.23797 47.9124 8.39312 47.8136 8.57178 47.7431C8.75044 47.6726 8.9479 47.6373 9.16417 47.6373Z" fill="#F5F5F5"/>
<path d="M4.97754 46.657H5.7815V51.2268H4.97754V46.657Z" fill="#F5F5F5"/>
</g>
<g filter="url(#filter3_d_58_539)">
<path d="M58.646 50.4653V51.2269H57.708V50.4653H58.646Z" fill="#F5F5F5"/>
<path d="M54.4384 51.3046C54.114 51.3046 53.8178 51.227 53.5498 51.0718C53.2865 50.9167 53.0773 50.7028 52.9222 50.4301C52.767 50.1527 52.6895 49.8353 52.6895 49.478C52.6895 49.1113 52.7647 48.7916 52.9151 48.5189C53.0703 48.2415 53.2771 48.0253 53.5357 47.8701C53.799 47.715 54.0999 47.6374 54.4384 47.6374C54.7346 47.6374 54.9838 47.6867 55.186 47.7855C55.3881 47.8795 55.548 48.0112 55.6655 48.1804C55.7831 48.345 55.8677 48.5377 55.9194 48.7587C55.9758 48.9797 56.004 49.2194 56.004 49.478C56.004 49.6708 55.9758 49.8753 55.9194 50.0916C55.863 50.3031 55.7737 50.5006 55.6514 50.684C55.5339 50.8673 55.374 51.0178 55.1719 51.1353C54.9744 51.2481 54.7299 51.3046 54.4384 51.3046ZM54.6782 50.6557C54.9415 50.6557 55.1648 50.6064 55.3482 50.5076C55.5362 50.4042 55.6773 50.2632 55.7713 50.0845C55.87 49.9059 55.9194 49.7037 55.9194 49.478C55.9194 49.2288 55.87 49.0173 55.7713 48.8433C55.6726 48.6647 55.5315 48.526 55.3482 48.4272C55.1648 48.3285 54.9415 48.2791 54.6782 48.2791C54.3021 48.2791 54.0106 48.392 53.8037 48.6176C53.5968 48.8386 53.4934 49.1254 53.4934 49.478C53.4934 49.7084 53.5428 49.9129 53.6415 50.0916C53.7449 50.2702 53.886 50.4089 54.0646 50.5076C54.2433 50.6064 54.4478 50.6557 54.6782 50.6557ZM55.9194 46.3045H56.7093V51.227H55.9758C55.9664 51.1188 55.9547 50.9849 55.9406 50.825C55.9264 50.6652 55.9194 50.5218 55.9194 50.3948V46.3045Z" fill="#F5F5F5"/>
<path d="M51.1396 46.3045H51.9225V51.227H51.1396V46.3045Z" fill="#F5F5F5"/>
<path d="M50.2085 46.2269V46.9815H49.2705V46.2269H50.2085ZM49.341 47.715H50.1309V51.227H49.341V47.715Z" fill="#F5F5F5"/>
<path d="M48.4277 51.2269H47.6449V47.7149H48.4277V51.2269ZM47.6872 49.5555L47.6943 49.7812C47.6849 49.8423 47.6637 49.934 47.6308 50.0563C47.6026 50.1785 47.5532 50.3125 47.4827 50.4582C47.4169 50.5993 47.3276 50.7356 47.2147 50.8673C47.1066 50.9942 46.9702 51.1 46.8057 51.1846C46.6411 51.2645 46.4413 51.3045 46.2062 51.3045C46.037 51.3045 45.8654 51.281 45.6914 51.234C45.5222 51.1917 45.367 51.1188 45.226 51.0154C45.0896 50.9119 44.9791 50.7709 44.8945 50.5922C44.8099 50.4136 44.7676 50.1879 44.7676 49.9152V47.7149H45.5504V49.7671C45.5504 49.9881 45.5856 50.162 45.6562 50.289C45.7314 50.4112 45.8348 50.4982 45.9665 50.5499C46.0981 50.6016 46.2509 50.6275 46.4249 50.6275C46.674 50.6275 46.8856 50.5711 47.0596 50.4582C47.2335 50.3454 47.3722 50.2067 47.4757 50.0421C47.5838 49.8729 47.6543 49.7107 47.6872 49.5555Z" fill="#F5F5F5"/>
<path d="M39.8115 51.2269V46.657H42.1388C42.6983 46.657 43.1261 46.7628 43.4223 46.9744C43.7232 47.1813 43.8736 47.4822 43.8736 47.8771C43.8736 48.131 43.8149 48.3331 43.6973 48.4836C43.5845 48.6293 43.4223 48.7398 43.2107 48.815C42.9992 48.8856 42.75 48.9302 42.4632 48.949L42.4914 48.9067C42.6983 48.9114 42.8934 48.9302 43.0767 48.9631C43.2648 48.9913 43.4293 49.0431 43.5704 49.1183C43.7161 49.1935 43.829 49.2993 43.9089 49.4356C43.9935 49.5673 44.0358 49.7389 44.0358 49.9504C44.0358 50.2325 43.9653 50.4653 43.8243 50.6486C43.6832 50.832 43.4881 50.973 43.2389 51.0718C42.9898 51.1658 42.703 51.2175 42.3786 51.2269H39.8115ZM40.6155 50.5428H42.2587C42.5643 50.5428 42.8017 50.4911 42.9709 50.3877C43.1402 50.2796 43.2248 50.1127 43.2248 49.887C43.2248 49.7083 43.1731 49.579 43.0697 49.4991C42.9662 49.4145 42.8322 49.3604 42.6677 49.3369C42.5078 49.3134 42.3362 49.3016 42.1529 49.3016H40.6155V50.5428ZM40.6155 48.6317H42.0894C42.395 48.6317 42.6301 48.58 42.7946 48.4765C42.9639 48.3684 43.0485 48.1991 43.0485 47.9688C43.0485 47.7431 42.9639 47.5832 42.7946 47.4892C42.6301 47.3905 42.4138 47.3411 42.1458 47.3411H40.6155V48.6317Z" fill="#F5F5F5"/>
</g>
<g filter="url(#filter4_d_58_539)">
<path d="M81.894 50.4653V51.2269H80.9561V50.4653H81.894Z" fill="#F5F5F5"/>
<path d="M79.5517 50.0704H80.3063C80.2687 50.3102 80.1746 50.5241 80.0242 50.7122C79.8784 50.8955 79.6786 51.0413 79.4247 51.1494C79.1709 51.2528 78.8676 51.3046 78.515 51.3046C78.1154 51.3046 77.758 51.2317 77.443 51.0859C77.128 50.9355 76.8812 50.7239 76.7026 50.4512C76.5239 50.1786 76.4346 49.8542 76.4346 49.478C76.4346 49.1066 76.5215 48.7822 76.6955 48.5048C76.8695 48.2274 77.1092 48.0135 77.4148 47.8631C77.7251 47.7126 78.0825 47.6374 78.4868 47.6374C78.9052 47.6374 79.2531 47.7126 79.5305 47.8631C79.8126 48.0088 80.0218 48.2298 80.1582 48.526C80.2945 48.8175 80.3509 49.1865 80.3274 49.6332H77.2315C77.255 49.8306 77.3185 50.0093 77.4219 50.1692C77.53 50.3243 77.6758 50.4465 77.8591 50.5359C78.0425 50.6205 78.2564 50.6628 78.5009 50.6628C78.7736 50.6628 79.0016 50.6087 79.185 50.5006C79.373 50.3925 79.4953 50.2491 79.5517 50.0704ZM78.4656 48.2721C78.1459 48.2721 77.8826 48.352 77.6758 48.5119C77.4689 48.667 77.3349 48.8668 77.2738 49.1113H79.5376C79.5188 48.848 79.413 48.6435 79.2202 48.4978C79.0275 48.3473 78.7759 48.2721 78.4656 48.2721Z" fill="#F5F5F5"/>
<path d="M74.8828 46.3045H75.6656V51.227H74.8828V46.3045Z" fill="#F5F5F5"/>
<path d="M71.6816 51.3046C71.3619 51.3046 71.068 51.227 70.8 51.0718C70.5368 50.9167 70.3252 50.7028 70.1653 50.4301C70.0102 50.1527 69.9326 49.8353 69.9326 49.478C69.9326 49.1113 70.0125 48.7916 70.1724 48.5189C70.3322 48.2415 70.5485 48.0253 70.8212 47.8701C71.0939 47.715 71.3995 47.6374 71.738 47.6374C72.1141 47.6374 72.4127 47.7197 72.6336 47.8842C72.8546 48.0488 73.0121 48.2697 73.1061 48.5471C73.2002 48.8245 73.2472 49.1348 73.2472 49.478C73.2472 49.6708 73.219 49.8753 73.1626 50.0916C73.1061 50.3031 73.0168 50.5006 72.8946 50.684C72.777 50.8673 72.6172 51.0178 72.415 51.1353C72.2176 51.2481 71.9731 51.3046 71.6816 51.3046ZM71.9214 50.6558C72.1846 50.6558 72.408 50.6064 72.5913 50.5077C72.7794 50.4042 72.9204 50.2632 73.0145 50.0845C73.1132 49.9059 73.1626 49.7037 73.1626 49.478C73.1626 49.2288 73.1132 49.0173 73.0145 48.8433C72.9157 48.6647 72.7747 48.5283 72.5913 48.4343C72.408 48.3356 72.1846 48.2862 71.9214 48.2862C71.5452 48.2862 71.2537 48.3967 71.0469 48.6177C70.84 48.8386 70.7366 49.1254 70.7366 49.478C70.7366 49.7084 70.7859 49.9129 70.8847 50.0916C70.9881 50.2702 71.1292 50.4089 71.3078 50.5077C71.4865 50.6064 71.691 50.6558 71.9214 50.6558ZM73.1626 47.715H73.9524V51.227H73.219C73.219 51.227 73.2143 51.1823 73.2049 51.093C73.1955 51.0037 73.1861 50.8955 73.1767 50.7686C73.1673 50.637 73.1626 50.5124 73.1626 50.3948V47.715Z" fill="#F5F5F5"/>
<path d="M69.4263 49.8659C69.3981 50.1668 69.3017 50.4254 69.1371 50.6417C68.9726 50.8579 68.7516 51.0225 68.4742 51.1353C68.2015 51.2481 67.8865 51.3046 67.5292 51.3046C67.1437 51.3046 66.7934 51.234 66.4784 51.093C66.1681 50.952 65.9213 50.7451 65.7379 50.4724C65.5546 50.1997 65.4629 49.8683 65.4629 49.478C65.4629 49.0878 65.5546 48.7563 65.7379 48.4837C65.9213 48.211 66.1681 48.0018 66.4784 47.856C66.7934 47.7103 67.1437 47.6374 67.5292 47.6374C67.8865 47.6374 68.2015 47.6962 68.4742 47.8137C68.7469 47.9265 68.9655 48.0887 69.1301 48.3003C69.2946 48.5119 69.391 48.7681 69.4192 49.069H68.6999C68.62 48.8198 68.4742 48.6271 68.2626 48.4907C68.0558 48.3497 67.8113 48.2791 67.5292 48.2791C67.2988 48.2791 67.0873 48.3262 66.8945 48.4202C66.7017 48.5095 66.5466 48.6435 66.4291 48.8222C66.3162 48.9961 66.2598 49.2147 66.2598 49.478C66.2598 49.7366 66.3162 49.9552 66.4291 50.1339C66.5466 50.3125 66.7017 50.4465 66.8945 50.5359C67.0873 50.6205 67.2988 50.6628 67.5292 50.6628C67.8395 50.6628 68.0934 50.5946 68.2909 50.4583C68.493 50.3172 68.6317 50.1198 68.7069 49.8659H69.4263Z" fill="#F5F5F5"/>
<path d="M60.9589 49.7108H61.7417C61.7605 49.8847 61.8287 50.0422 61.9462 50.1833C62.0685 50.3196 62.2283 50.4277 62.4258 50.5077C62.6279 50.5829 62.8583 50.6205 63.1169 50.6205C63.3473 50.6205 63.5377 50.5923 63.6881 50.5359C63.8386 50.4795 63.9491 50.4019 64.0196 50.3032C64.0948 50.1997 64.1324 50.0798 64.1324 49.9435C64.1324 49.8071 64.0878 49.7014 63.9984 49.6261C63.9138 49.5462 63.7822 49.4804 63.6035 49.4287C63.4248 49.3723 63.1968 49.3182 62.9194 49.2665C62.6891 49.2242 62.4657 49.1677 62.2495 49.0972C62.0332 49.0267 61.8381 48.9374 61.6641 48.8292C61.4949 48.7211 61.3609 48.5895 61.2621 48.4343C61.1634 48.2745 61.114 48.0864 61.114 47.8701C61.114 47.6256 61.1822 47.4047 61.3186 47.2072C61.4596 47.0097 61.6665 46.8546 61.9392 46.7418C62.2118 46.6289 62.5433 46.5725 62.9335 46.5725C63.5306 46.5725 63.9867 46.7112 64.3017 46.9886C64.6167 47.2613 64.7695 47.6327 64.7601 48.1029H63.9914C63.9773 47.8067 63.8691 47.5927 63.667 47.4611C63.4648 47.3295 63.2086 47.2636 62.8983 47.2636C62.6209 47.2636 62.3882 47.313 62.2001 47.4117C62.012 47.5105 61.918 47.6703 61.918 47.8913C61.918 47.9853 61.9392 48.0676 61.9815 48.1381C62.0285 48.2039 62.1037 48.2651 62.2071 48.3215C62.3106 48.3732 62.4516 48.4249 62.6303 48.4766C62.8136 48.5236 63.037 48.5754 63.3003 48.6318C63.5259 48.6694 63.7375 48.7211 63.935 48.7869C64.1324 48.8527 64.304 48.935 64.4498 49.0337C64.6002 49.1325 64.7178 49.2594 64.8024 49.4146C64.887 49.5697 64.9293 49.7601 64.9293 49.9858C64.9293 50.2444 64.8635 50.4748 64.7319 50.6769C64.6002 50.8744 64.3981 51.0319 64.1254 51.1494C63.8574 51.2623 63.5095 51.3187 63.0816 51.3187C62.7572 51.3187 62.4728 51.2811 62.2283 51.2058C61.9885 51.1259 61.784 51.0248 61.6148 50.9026C61.4455 50.7757 61.3092 50.6393 61.2057 50.4936C61.107 50.3478 61.0365 50.2068 60.9942 50.0704C60.9565 49.9294 60.9448 49.8095 60.9589 49.7108Z" fill="#F5F5F5"/>
</g>
<defs>
<filter id="filter0_d_58_539" x="2.44238" y="0.681335" width="82.7979" height="26.5898" filterUnits="userSpaceOnUse" color-interpolation-filters="sRGB">
<feFlood flood-opacity="0" result="BackgroundImageFix"/>
<feColorMatrix in="SourceAlpha" type="matrix" values="0 0 0 0 0 0 0 0 0 0 0 0 0 0 0 0 0 0 127 0" result="hardAlpha"/>
<feOffset dy="2"/>
<feGaussianBlur stdDeviation="2"/>
<feComposite in2="hardAlpha" operator="out"/>
<feColorMatrix type="matrix" values="0 0 0 0 0 0 0 0 0 0 0 0 0 0 0 0 0 0 0.2 0"/>
<feBlend mode="normal" in2="BackgroundImageFix" result="effect1_dropShadow_58_539"/>
<feBlend mode="normal" in="SourceGraphic" in2="effect1_dropShadow_58_539" result="shape"/>
</filter>
<filter id="filter1_d_58_539" x="0" y="21.2057" width="86" height="26.9565" filterUnits="userSpaceOnUse" color-interpolation-filters="sRGB">
<feFlood flood-opacity="0" result="BackgroundImageFix"/>
<feColorMatrix in="SourceAlpha" type="matrix" values="0 0 0 0 0 0 0 0 0 0 0 0 0 0 0 0 0 0 127 0" result="hardAlpha"/>
<feOffset dy="2"/>
<feGaussianBlur stdDeviation="2"/>
<feComposite in2="hardAlpha" operator="out"/>
<feColorMatrix type="matrix" values="0 0 0 0 0 0 0 0 0 0 0 0 0 0 0 0 0 0 0.2 0"/>
<feBlend mode="normal" in2="BackgroundImageFix" result="effect1_dropShadow_58_539"/>
<feBlend mode="normal" in="SourceGraphic" in2="effect1_dropShadow_58_539" result="shape"/>
</filter>
<filter id="filter2_d_58_539" x="0.977539" y="44.657" width="40.1572" height="12.6475" filterUnits="userSpaceOnUse" color-interpolation-filters="sRGB">
<feFlood flood-opacity="0" result="BackgroundImageFix"/>
<feColorMatrix in="SourceAlpha" type="matrix" values="0 0 0 0 0 0 0 0 0 0 0 0 0 0 0 0 0 0 127 0" result="hardAlpha"/>
<feOffset dy="2"/>
<feGaussianBlur stdDeviation="2"/>
<feComposite in2="hardAlpha" operator="out"/>
<feColorMatrix type="matrix" values="0 0 0 0 0 0 0 0 0 0 0 0 0 0 0 0 0 0 0.2 0"/>
<feBlend mode="normal" in2="BackgroundImageFix" result="effect1_dropShadow_58_539"/>
<feBlend mode="normal" in="SourceGraphic" in2="effect1_dropShadow_58_539" result="shape"/>
</filter>
<filter id="filter3_d_58_539" x="35.8115" y="44.2269" width="26.834" height="13.0776" filterUnits="userSpaceOnUse" color-interpolation-filters="sRGB">
<feFlood flood-opacity="0" result="BackgroundImageFix"/>
<feColorMatrix in="SourceAlpha" type="matrix" values="0 0 0 0 0 0 0 0 0 0 0 0 0 0 0 0 0 0 127 0" result="hardAlpha"/>
<feOffset dy="2"/>
<feGaussianBlur stdDeviation="2"/>
<feComposite in2="hardAlpha" operator="out"/>
<feColorMatrix type="matrix" values="0 0 0 0 0 0 0 0 0 0 0 0 0 0 0 0 0 0 0.2 0"/>
<feBlend mode="normal" in2="BackgroundImageFix" result="effect1_dropShadow_58_539"/>
<feBlend mode="normal" in="SourceGraphic" in2="effect1_dropShadow_58_539" result="shape"/>
</filter>
<filter id="filter4_d_58_539" x="56.9531" y="44.3045" width="28.9404" height="13.0142" filterUnits="userSpaceOnUse" color-interpolation-filters="sRGB">
<feFlood flood-opacity="0" result="BackgroundImageFix"/>
<feColorMatrix in="SourceAlpha" type="matrix" values="0 0 0 0 0 0 0 0 0 0 0 0 0 0 0 0 0 0 127 0" result="hardAlpha"/>
<feOffset dy="2"/>
<feGaussianBlur stdDeviation="2"/>
<feComposite in2="hardAlpha" operator="out"/>
<feColorMatrix type="matrix" values="0 0 0 0 0 0 0 0 0 0 0 0 0 0 0 0 0 0 0.2 0"/>
<feBlend mode="normal" in2="BackgroundImageFix" result="effect1_dropShadow_58_539"/>
<feBlend mode="normal" in="SourceGraphic" in2="effect1_dropShadow_58_539" result="shape"/>
</filter>
<linearGradient id="paint0_linear_58_539" x1="36.0312" y1="34.4724" x2="55.976" y2="34.4315" gradientUnits="userSpaceOnUse">
<stop stop-color="#5E2AFF"/>
<stop offset="0.571435" stop-color="#190F82"/>
<stop offset="1" stop-color="#269206"/>
</linearGradient>
</defs>
</svg>
