<svg width="24" height="24" viewBox="0 0 24 24" fill="none" xmlns="http://www.w3.org/2000/svg">
<path d="M7.8 2.00101H16.2C19.4 2.00101 22 4.60101 22 7.80101V16.201C22 17.7393 21.3889 19.2145 20.3012 20.3022C19.2135 21.3899 17.7383 22.001 16.2 22.001H7.8C4.6 22.001 2 19.401 2 16.201V7.80101C2 6.26275 2.61107 4.7875 3.69878 3.69979C4.78649 2.61208 6.26174 2.00101 7.8 2.00101ZM7.6 4.00101C6.64522 4.00101 5.72955 4.38029 5.05442 5.05542C4.37928 5.73055 4 6.64623 4 7.60101V16.401C4 18.391 5.61 20.001 7.6 20.001H16.4C17.3548 20.001 18.2705 19.6217 18.9456 18.9466C19.6207 18.2715 20 17.3558 20 16.401V7.60101C20 5.61101 18.39 4.00101 16.4 4.00101H7.6ZM17.25 5.50101C17.5815 5.50101 17.8995 5.6327 18.1339 5.86712C18.3683 6.10154 18.5 6.41949 18.5 6.75101C18.5 7.08253 18.3683 7.40047 18.1339 7.63489C17.8995 7.86931 17.5815 8.00101 17.25 8.00101C16.9185 8.00101 16.6005 7.86931 16.3661 7.63489C16.1317 7.40047 16 7.08253 16 6.75101C16 6.41949 16.1317 6.10154 16.3661 5.86712C16.6005 5.6327 16.9185 5.50101 17.25 5.50101ZM12 7.00101C13.3261 7.00101 14.5979 7.52779 15.5355 8.46547C16.4732 9.40316 17 10.6749 17 12.001C17 13.3271 16.4732 14.5989 15.5355 15.5365C14.5979 16.4742 13.3261 17.001 12 17.001C10.6739 17.001 9.40215 16.4742 8.46447 15.5365C7.52678 14.5989 7 13.3271 7 12.001C7 10.6749 7.52678 9.40316 8.46447 8.46547C9.40215 7.52779 10.6739 7.00101 12 7.00101ZM12 9.00101C11.2044 9.00101 10.4413 9.31708 9.87868 9.87969C9.31607 10.4423 9 11.2054 9 12.001C9 12.7967 9.31607 13.5597 9.87868 14.1223C10.4413 14.6849 11.2044 15.001 12 15.001C12.7956 15.001 13.5587 14.6849 14.1213 14.1223C14.6839 13.5597 15 12.7967 15 12.001C15 11.2054 14.6839 10.4423 14.1213 9.87969C13.5587 9.31708 12.7956 9.00101 12 9.00101Z" fill="#0F0F0F"/>
</svg>
