<svg width="24" height="24" viewBox="0 0 24 24" fill="none" xmlns="http://www.w3.org/2000/svg">
<path d="M16.6002 5.82101C15.9167 5.04053 15.5401 4.03841 15.5402 3.00101H12.4502V15.401C12.4268 16.0722 12.1437 16.7081 11.6605 17.1745C11.1773 17.6409 10.5318 17.9014 9.86016 17.901C8.44016 17.901 7.26016 16.741 7.26016 15.301C7.26016 13.581 8.92016 12.291 10.6302 12.821V9.66101C7.18016 9.20101 4.16016 11.881 4.16016 15.301C4.16016 18.631 6.92016 21.001 9.85016 21.001C12.9902 21.001 15.5402 18.451 15.5402 15.301V9.01101C16.7932 9.91086 18.2975 10.3937 19.8402 10.391V7.30101C19.8402 7.30101 17.9602 7.39101 16.6002 5.82101Z" fill="#0F0F0F"/>
</svg>
